<svg id="Layer_1" data-name="Layer 1" xmlns="http://www.w3.org/2000/svg" viewBox="0 0 585.93 396.52"><defs><style>.cls-1{fill:none;stroke:#3b4da0;stroke-miterlimit:10;}</style></defs><polygon class="cls-1" points="436.63 148.06 436.63 185.06 404.58 203.56 372.53 185.06 372.53 148.06 404.58 129.56 436.63 148.06"/><polygon class="cls-1" points="362.22 148.06 362.22 185.06 330.18 203.56 298.13 185.06 298.13 148.06 330.18 129.56 362.22 148.06"/><polygon class="cls-1" points="287.82 148.06 287.82 185.06 255.78 203.56 223.73 185.06 223.73 148.06 255.78 129.56 287.82 148.06"/><polygon class="cls-1" points="213.42 148.06 213.42 185.06 181.37 203.56 149.33 185.06 149.33 148.06 181.37 129.56 213.42 148.06"/><polygon class="cls-1" points="139.02 148.06 139.02 185.06 106.97 203.56 74.92 185.06 74.92 148.06 106.97 129.56 139.02 148.06"/><polygon class="cls-1" points="64.61 148.06 64.61 185.06 32.57 203.56 0.52 185.06 0.52 148.06 32.57 129.56 64.61 148.06"/><polygon class="cls-1" points="399.43 83.62 399.43 120.63 367.38 139.13 335.33 120.63 335.33 83.62 367.38 65.12 399.43 83.62"/><polygon class="cls-1" points="325.02 83.62 325.02 120.63 292.98 139.13 260.93 120.63 260.93 83.62 292.98 65.12 325.02 83.62"/><polygon class="cls-1" points="250.62 83.62 250.62 120.63 218.57 139.13 186.53 120.63 186.53 83.62 218.57 65.12 250.62 83.62"/><polygon class="cls-1" points="176.22 83.62 176.22 120.63 144.17 139.13 112.13 120.63 112.13 83.62 144.17 65.12 176.22 83.62"/><polygon class="cls-1" points="101.81 83.62 101.81 120.63 69.77 139.13 37.72 120.63 37.72 83.62 69.77 65.12 101.81 83.62"/><polygon class="cls-1" points="436.61 19.08 436.61 56.08 404.56 74.58 372.51 56.08 372.51 19.08 404.56 0.58 436.61 19.08"/><polygon class="cls-1" points="362.2 19.08 362.2 56.08 330.16 74.58 298.11 56.08 298.11 19.08 330.16 0.58 362.2 19.08"/><polygon class="cls-1" points="287.8 19.08 287.8 56.08 255.75 74.58 223.71 56.08 223.71 19.08 255.75 0.58 287.8 19.08"/><polygon class="cls-1" points="213.42 19.08 213.42 56.08 181.37 74.58 149.33 56.08 149.33 19.08 181.37 0.58 213.42 19.08"/><polygon class="cls-1" points="64.59 19.08 64.59 56.08 32.55 74.58 0.5 56.08 0.5 19.08 32.55 0.58 64.59 19.08"/><polygon class="cls-1" points="139.02 19.08 139.02 56.08 106.97 74.58 74.92 56.08 74.92 19.08 106.97 0.58 139.02 19.08"/><polygon class="cls-1" points="585.43 148.11 585.43 185.12 553.38 203.62 521.34 185.12 521.34 148.11 553.38 129.61 585.43 148.11"/><polygon class="cls-1" points="511.03 148.11 511.03 185.12 478.98 203.62 446.94 185.12 446.94 148.11 478.98 129.61 511.03 148.11"/><polygon class="cls-1" points="548.23 83.68 548.23 120.68 516.18 139.18 484.14 120.68 484.14 83.68 516.18 65.18 548.23 83.68"/><polygon class="cls-1" points="473.83 83.68 473.83 120.68 441.78 139.18 409.73 120.68 409.73 83.68 441.78 65.18 473.83 83.68"/><polygon class="cls-1" points="511.01 19.13 511.01 56.14 478.96 74.64 446.91 56.14 446.91 19.13 478.96 0.63 511.01 19.13"/><polygon class="cls-1" points="585.43 19.13 585.43 56.14 553.38 74.64 521.34 56.14 521.34 19.13 553.38 0.63 585.43 19.13"/><polygon class="cls-1" points="473.83 340.38 473.83 377.39 441.78 395.89 409.73 377.39 409.73 340.38 441.78 321.88 473.83 340.38"/><polygon class="cls-1" points="399.43 340.38 399.43 377.39 367.38 395.89 335.33 377.39 335.33 340.38 367.38 321.88 399.43 340.38"/><polygon class="cls-1" points="325.02 340.38 325.02 377.39 292.98 395.89 260.93 377.39 260.93 340.38 292.98 321.88 325.02 340.38"/><polygon class="cls-1" points="250.62 340.38 250.62 377.39 218.57 395.89 186.53 377.39 186.53 340.38 218.57 321.88 250.62 340.38"/><polygon class="cls-1" points="176.22 340.38 176.22 377.39 144.17 395.89 112.13 377.39 112.13 340.38 144.17 321.88 176.22 340.38"/><polygon class="cls-1" points="101.81 340.38 101.81 377.39 69.77 395.89 37.72 377.39 37.72 340.38 69.77 321.88 101.81 340.38"/><polygon class="cls-1" points="436.63 275.95 436.63 312.95 404.58 331.45 372.53 312.95 372.53 275.95 404.58 257.45 436.63 275.95"/><polygon class="cls-1" points="362.22 275.95 362.22 312.95 330.18 331.45 298.13 312.95 298.13 275.95 330.18 257.45 362.22 275.95"/><polygon class="cls-1" points="287.82 275.95 287.82 312.95 255.78 331.45 223.73 312.95 223.73 275.95 255.78 257.45 287.82 275.95"/><polygon class="cls-1" points="213.42 275.95 213.42 312.95 181.37 331.45 149.33 312.95 149.33 275.95 181.37 257.45 213.42 275.95"/><polygon class="cls-1" points="139.02 275.95 139.02 312.95 106.97 331.45 74.92 312.95 74.92 275.95 106.97 257.45 139.02 275.95"/><polygon class="cls-1" points="64.61 275.95 64.61 312.95 32.57 331.45 0.52 312.95 0.52 275.95 32.57 257.45 64.61 275.95"/><polygon class="cls-1" points="473.81 211.4 473.81 248.41 441.76 266.91 409.71 248.41 409.71 211.4 441.76 192.9 473.81 211.4"/><polygon class="cls-1" points="399.4 211.4 399.4 248.41 367.36 266.91 335.31 248.41 335.31 211.4 367.36 192.9 399.4 211.4"/><polygon class="cls-1" points="325 211.4 325 248.41 292.95 266.91 260.91 248.41 260.91 211.4 292.95 192.9 325 211.4"/><polygon class="cls-1" points="250.62 211.4 250.62 248.41 218.57 266.91 186.53 248.41 186.53 211.4 218.57 192.9 250.62 211.4"/><polygon class="cls-1" points="101.79 211.4 101.79 248.41 69.75 266.91 37.7 248.41 37.7 211.4 69.75 192.9 101.79 211.4"/><polygon class="cls-1" points="176.22 211.4 176.22 248.41 144.17 266.91 112.13 248.41 112.13 211.4 144.17 192.9 176.22 211.4"/><polygon class="cls-1" points="548.23 340.44 548.23 377.44 516.18 395.94 484.14 377.44 484.14 340.44 516.18 321.94 548.23 340.44"/><polygon class="cls-1" points="585.43 276 585.43 313.01 553.38 331.51 521.34 313.01 521.34 276 553.38 257.5 585.43 276"/><polygon class="cls-1" points="511.03 276 511.03 313.01 478.98 331.51 446.94 313.01 446.94 276 478.98 257.5 511.03 276"/><polygon class="cls-1" points="548.21 211.46 548.21 248.46 516.16 266.96 484.12 248.46 484.12 211.46 516.16 192.96 548.21 211.46"/></svg>