# Blender v2.82 (sub 7) OBJ File: ''
# www.blender.org
mtllib manatee.mtl
o Manatee_Circle.002
v 4.456217 -0.905044 -1.322492
v 4.770363 -0.041081 -1.887571
v 6.221752 -0.748756 -1.771089
v 6.027647 -1.447386 -1.158603
v 5.239089 2.494304 -1.349004
v 5.333538 2.858714 -0.004574
v 7.207249 2.041534 0.060286
v 7.120791 1.659168 -1.227037
v 4.297150 -1.616024 0.031685
v 5.616708 -2.034878 0.135310
v 8.714122 0.051737 -1.048596
v 7.298337 -1.628614 -1.656989
v 6.899417 -2.150154 -1.062930
v 6.369740 -2.498671 0.214084
v 8.852921 0.320161 0.246633
v 8.592362 -0.434229 0.268184
v 8.629215 -0.273057 -0.074518
v 8.723667 0.000405 -0.082330
v 8.439178 -0.666087 -0.545119
v 8.674116 -0.095895 -0.551353
v 8.573684 -0.357105 -0.369337
v 8.376815 0.132679 -0.065845
v 8.327261 0.036378 -0.534868
v 2.577647 -2.340728 -2.946170
v 2.466934 0.614661 -4.172192
v 2.375904 3.416925 -2.949151
v 2.357822 4.025196 0.000008
v -0.874521 3.946787 0.000008
v -0.855849 3.318539 -3.046005
v -4.282591 2.460598 -2.326139
v -4.396404 2.987105 0.000007
v -0.770236 0.438279 -4.307708
v -3.760804 0.046784 -3.289662
v -0.679736 -2.606392 -3.046012
v -3.209235 -2.504815 -2.326144
v -7.677863 -0.107613 -2.181712
v -7.228611 -1.203542 -1.542703
v -8.927831 -0.860660 -1.032314
v -9.117564 -0.556553 -1.459914
v -8.195560 1.155279 0.000004
v -8.102859 0.929142 -1.542701
v -9.376078 -0.038185 -1.032313
v -9.438828 0.026394 0.000003
v 0.844280 0.533263 -4.239222
v 2.068816 -0.668805 -4.299720
v 1.041571 -0.724719 -4.336706
v 0.760028 3.367733 -2.997578
v 0.741652 3.985991 0.000008
v -9.824202 -0.738029 -1.459911
v -10.223983 -0.333513 -1.032311
v -9.736040 -0.920139 -1.032312
v -10.239302 -0.271758 0.000007
v -11.860085 -2.356796 -3.928939
v -12.176908 -1.939892 -2.778178
v -11.742196 -2.476761 -2.778178
v -12.198064 -1.917636 0.000003
v -12.930115 -4.034688 -3.928942
v -13.282851 -3.673347 -2.778182
v -12.789639 -4.083844 -2.778181
v -12.588741 -2.529927 0.000002
v -12.071606 -3.068799 0.000001
v -0.172612 -2.541639 -4.667600
v -0.193773 -1.829718 -5.236574
v -0.002266 -3.256826 -5.568593
v 0.000018 -3.333679 -5.066534
v 2.116136 -2.260790 -3.640010
v 0.014324 -0.780632 -4.373692
v 0.063199 -2.424900 -3.692316
v 1.043281 -3.816571 -5.632548
v 1.045402 -3.887940 -5.140539
v 1.009208 -1.791018 -5.198541
v 2.212188 -1.752320 -5.160507
v 2.053895 -3.201157 -5.494473
v 2.232677 -2.441603 -4.609625
v 2.055853 -3.267045 -5.012513
v 7.580369 -1.967602 -0.364975
v 7.376451 -2.092886 0.267560
v 7.889031 -1.748672 -0.667017
v 7.778818 -1.605052 -0.682719
v 8.033607 -1.771646 0.300856
v 7.929838 -1.624909 0.287838
v 8.282365 -0.140786 -0.058033
v 8.226838 -0.224834 -0.352852
v 4.421759 -0.918464 1.361587
v 5.907042 -1.351077 1.424478
v 6.054067 -0.607992 1.994365
v 4.721847 -0.000049 1.908395
v 5.225404 2.505878 1.336155
v 6.992112 1.767932 1.357206
v 7.099756 -1.460705 2.107236
v 8.567294 0.175857 1.534764
v 6.764356 -2.035905 1.521025
v 8.685358 0.032785 0.587961
v 8.590908 -0.240678 0.595774
v 8.346457 -0.587715 1.077293
v 8.501769 -0.296317 0.889072
v 8.582289 -0.018280 1.055380
v 8.240290 0.109891 0.986946
v 8.343358 0.160958 0.519527
v 2.458431 0.620292 4.168442
v 2.557698 -2.412881 3.074132
v 2.375904 3.416919 2.949165
v -4.282590 2.460593 2.326150
v -0.855847 3.318532 3.046019
v -3.760804 0.046777 3.289668
v -0.770114 0.434229 4.276025
v -3.208264 -2.537477 2.355037
v -0.678450 -2.649634 3.154255
v -7.677863 -0.107618 2.181717
v -9.117565 -0.556557 1.459920
v -8.927831 -0.860662 1.032320
v -7.228611 -1.203547 1.542707
v -9.376078 -0.038187 1.032321
v -8.102859 0.929138 1.542709
v 0.844445 0.527650 4.204061
v 1.049370 -1.136179 3.866016
v 2.076892 -1.089553 3.775493
v 0.760027 3.367725 2.997592
v -10.223984 -0.333518 1.032323
v -9.824203 -0.738034 1.459923
v -9.736040 -0.920142 1.032322
v -12.176908 -1.939904 2.778186
v -11.860086 -2.356811 3.928945
v -11.742198 -2.476773 2.778184
v -13.282854 -3.673358 2.778182
v -12.930119 -4.034702 3.928941
v -12.789639 -4.083855 2.778181
v -0.162609 -3.324729 4.822038
v -0.001038 -3.744755 5.619162
v -0.011377 -3.396888 5.989103
v -0.188841 -2.442182 4.873935
v 2.124875 -2.703865 3.627063
v 0.070843 -2.831128 3.889456
v 0.021993 -1.187683 3.918637
v 1.029998 -3.816307 6.376657
v 1.040034 -4.153961 6.011881
v 1.013848 -2.393738 4.870528
v 2.046003 -3.382271 5.931140
v 2.220037 -2.462915 4.749953
v 2.056271 -3.727686 5.530947
v 2.244810 -3.296375 4.641242
v 7.509553 -1.907690 0.911888
v 7.780800 -1.657140 1.236742
v 7.671676 -1.514433 1.221095
v 8.159772 -0.168148 0.820637
v 8.248910 -0.112508 0.527339
v 2.651713 -3.623176 0.064924
v -0.641592 -3.889607 0.025979
v -2.980766 -3.561723 -0.000001
v -7.042523 -1.657494 0.000001
v -8.828734 -0.969452 0.000002
v 0.933341 -2.463000 -2.997585
v 0.971287 -3.739645 0.039782
v -9.734138 -0.978383 0.000006
v -11.715097 -2.509382 0.000003
v 1.089669 -2.342844 -3.666163
v 1.030033 -2.491622 -4.638613
v 0.935008 -2.519112 3.101215
v 1.098012 -2.772604 3.779797
v 1.040463 -3.289151 4.803648
v 5.843362 0.866501 -1.624019
v 5.786549 0.866092 -1.632413
v 5.825095 0.905923 -1.617355
v 5.788850 0.810172 -1.645316
v 5.828349 0.826839 -1.635601
v 5.729740 0.865683 -1.640808
v 5.748010 0.826261 -1.647471
v 5.784247 0.922013 -1.619511
v 5.744746 0.905345 -1.629227
v 5.832706 0.849380 -1.551800
v 5.814448 0.888800 -1.545135
v 5.775910 0.848970 -1.560192
v 5.778194 0.793051 -1.573098
v 5.817685 0.809719 -1.563385
v 5.719122 0.848556 -1.568580
v 5.737391 0.809135 -1.575244
v 5.773607 0.904891 -1.547289
v 5.734121 0.888220 -1.557002
v 5.775950 0.923482 1.658062
v 5.757998 0.962637 1.649178
v 5.718824 0.923336 1.664378
v 5.720555 0.867900 1.679558
v 5.760442 0.884239 1.670645
v 5.661707 0.923190 1.670695
v 5.679656 0.884036 1.679579
v 5.717101 0.978770 1.649198
v 5.677211 0.962430 1.658111
v 5.768265 0.903848 1.586228
v 5.711148 0.903712 1.592547
v 5.750314 0.943007 1.577346
v 5.712871 0.848267 1.607724
v 5.752755 0.864601 1.598809
v 5.654027 0.903578 1.598868
v 5.671980 0.864424 1.607753
v 5.709417 0.959147 1.577367
v 5.669535 0.942811 1.586283
v 6.047353 0.801370 -1.584010
v 5.867668 0.799661 -1.610655
v 5.989286 0.926036 -1.563016
v 5.875349 0.622658 -1.651382
v 6.000133 0.675710 -1.620618
v 5.688019 0.797897 -1.637306
v 5.746120 0.673257 -1.658283
v 5.859950 0.976666 -1.569938
v 5.735149 0.923583 -1.600715
v 6.013402 0.747207 -1.355467
v 5.955448 0.871894 -1.334435
v 5.833967 0.745530 -1.382033
v 5.841427 0.568536 -1.422820
v 5.966071 0.621555 -1.392105
v 5.654685 0.743691 -1.408599
v 5.712831 0.619069 -1.429560
v 5.826257 0.922535 -1.341314
v 5.701603 0.869426 -1.372055
v 5.981750 0.752796 1.571503
v 5.925140 0.873839 1.539213
v 5.800940 0.753084 1.590661
v 5.806115 0.581928 1.644192
v 5.932441 0.631841 1.614957
v 5.620131 0.753456 1.609877
v 5.676770 0.632337 1.642112
v 5.795764 0.924010 1.536971
v 5.669413 0.874284 1.566326
v 5.957431 0.684030 1.349113
v 5.776731 0.683052 1.367657
v 5.900887 0.804334 1.316494
v 5.781788 0.513898 1.422086
v 5.908063 0.563566 1.392754
v 5.596007 0.684971 1.387620
v 5.652672 0.564385 1.420079
v 5.771586 0.853013 1.313494
v 5.645234 0.804872 1.343628
vn -0.1568 -0.5614 -0.8126
vn 0.3986 0.8747 -0.2756
vn -0.2394 -0.8504 -0.4685
vn 0.1493 0.1720 -0.9737
vn 0.2344 0.1385 -0.9622
vn -0.4882 -0.7474 -0.4507
vn 0.9434 -0.3274 -0.0525
vn 0.9238 -0.3810 -0.0384
vn 0.9366 -0.3492 -0.0278
vn -0.3380 -0.9142 0.2234
vn 0.7100 0.6657 -0.2297
vn -0.3711 -0.5555 -0.7441
vn 0.6748 -0.3425 -0.6537
vn 0.3799 0.9007 -0.2108
vn 0.6274 0.2037 -0.7516
vn -0.2677 0.9406 -0.2088
vn -0.3068 0.3387 -0.8895
vn -0.2591 -0.3824 -0.8869
vn -0.2561 -0.6570 -0.7090
vn -0.6498 0.7499 -0.1239
vn -0.5235 0.3134 -0.7923
vn -0.2921 0.3358 -0.8955
vn -0.4128 0.8897 -0.1951
vn -0.2680 -0.4482 -0.8528
vn 0.0341 0.0848 -0.9958
vn 0.0347 0.0854 -0.9957
vn 0.0342 0.0803 -0.9962
vn 0.0159 0.4013 -0.9158
vn 0.0158 0.4013 -0.9158
vn 0.0152 0.4016 -0.9157
vn -0.0238 0.9791 -0.2021
vn -0.1825 0.5951 -0.7827
vn 0.1340 -0.8422 -0.5223
vn -0.3379 0.9386 -0.0702
vn -0.1482 0.8481 -0.5087
vn 0.7336 -0.6433 -0.2189
vn -0.6330 0.7738 -0.0231
vn -0.7753 0.4946 -0.3928
vn 0.8330 -0.5370 -0.1330
vn -0.8430 0.5378 -0.0107
vn -0.6228 -0.6628 0.4158
vn -0.6391 -0.7678 0.0452
vn -0.9876 -0.1361 -0.0786
vn 0.8091 -0.2009 -0.5523
vn -0.5731 -0.3282 -0.7509
vn -0.4729 -0.8718 -0.1279
vn 0.0141 0.2153 -0.9764
vn 0.9883 -0.1121 -0.1034
vn 0.9932 0.0764 0.0883
vn -0.0005 0.6284 -0.7779
vn -0.0003 0.6253 -0.7804
vn -0.0005 0.6288 -0.7776
vn -0.9790 0.0721 0.1907
vn -0.0007 0.6320 -0.7750
vn 0.0395 0.2189 -0.9750
vn 0.5295 -0.8397 -0.1206
vn -0.0237 0.9791 -0.2021
vn 0.0165 0.4010 -0.9159
vn 0.0352 0.0797 -0.9962
vn 0.3635 -0.9272 -0.0904
vn 0.7884 -0.4502 -0.4192
vn 0.5956 -0.7355 -0.3230
vn 0.9288 -0.3638 -0.0712
vn 0.9203 -0.3860 -0.0633
vn 0.6435 -0.7634 0.0563
vn 0.8887 -0.4355 -0.1431
vn 0.8128 -0.5659 -0.1381
vn 0.9334 -0.3560 -0.0444
vn 0.3250 0.8916 -0.3154
vn 0.2289 0.4958 0.8378
vn -0.0516 -0.0107 -0.9986
vn -0.8053 -0.5826 0.1099
vn -0.7523 -0.5353 0.3840
vn -0.2287 -0.4999 0.8353
vn 0.3745 0.8908 0.2575
vn -0.2806 -0.8299 0.4822
vn 0.0630 0.2224 0.9729
vn 0.1058 0.2284 0.9678
vn -0.5495 -0.7010 0.4546
vn 0.9295 -0.3156 0.1906
vn 0.9115 -0.3706 0.1785
vn 0.9251 -0.3410 0.1669
vn -0.3155 -0.9333 -0.1715
vn 0.6819 0.6896 0.2436
vn -0.4688 -0.4792 0.7420
vn 0.6930 -0.3063 0.6526
vn 0.3796 0.9010 0.2098
vn 0.6292 0.2035 0.7501
vn -0.2677 0.9406 0.2088
vn -0.3023 0.3348 0.8925
vn -0.2716 -0.3554 0.8944
vn -0.2561 -0.6570 0.7090
vn -0.6498 0.7499 0.1239
vn -0.5235 0.3134 0.7923
vn -0.2921 0.3358 0.8955
vn -0.4128 0.8897 0.1951
vn -0.2724 -0.4400 0.8557
vn 0.0564 -0.1994 0.9783
vn 0.0565 -0.2054 0.9771
vn 0.0579 -0.2143 0.9751
vn 0.0117 0.3937 0.9191
vn 0.0170 0.3920 0.9198
vn 0.0119 0.3937 0.9192
vn -0.0238 0.9791 0.2021
vn -0.1825 0.5951 0.7827
vn 0.1340 -0.8422 0.5223
vn -0.3379 0.9386 0.0702
vn -0.1482 0.8481 0.5087
vn 0.7336 -0.6433 0.2189
vn -0.6330 0.7738 0.0231
vn -0.7753 0.4946 0.3928
vn 0.8330 -0.5370 0.1330
vn -0.8430 0.5378 0.0107
vn -0.6228 -0.6628 -0.4158
vn -0.6391 -0.7678 -0.0452
vn -0.9897 -0.0719 0.1238
vn 0.6099 -0.1866 0.7702
vn -0.4693 -0.2220 0.8547
vn -0.4796 -0.6482 0.5915
vn 0.0441 0.7519 0.6578
vn 0.9881 -0.0354 0.1499
vn 0.9949 0.0393 -0.0928
vn 0.0396 0.6086 0.7925
vn 0.0354 0.6092 0.7922
vn 0.0812 0.6013 0.7949
vn -0.9687 -0.0209 -0.2473
vn -0.0078 0.6156 0.7880
vn 0.0076 0.7410 0.6715
vn 0.5270 -0.6269 0.5738
vn 0.0065 0.3955 0.9185
vn 0.0567 -0.1902 0.9801
vn 0.3455 -0.9146 0.2103
vn 0.7339 -0.4037 0.5462
vn 0.5521 -0.7010 0.4514
vn 0.9126 -0.3502 0.2109
vn 0.9050 -0.3731 0.2043
vn 0.6414 -0.7623 0.0866
vn 0.8644 -0.4148 0.2842
vn 0.7879 -0.5471 0.2827
vn 0.9204 -0.3449 0.1842
vn 0.2919 0.9195 0.2632
vn 0.3253 0.4142 -0.8500
vn -0.1648 0.0850 0.9827
vn -0.7902 -0.5955 -0.1443
vn -0.6996 -0.5807 -0.4163
vn 0.7325 -0.6246 -0.2709
vn -0.1358 -0.9114 -0.3884
vn -0.3024 -0.9376 -0.1714
vn -0.3767 -0.8759 -0.3017
vn 0.0830 -0.9180 -0.3878
vn 0.0909 -0.9181 -0.3858
vn 0.0398 -0.9958 -0.0825
vn 0.6185 -0.7854 -0.0234
vn 0.8391 -0.5437 -0.0164
vn 0.0846 -0.9836 -0.1594
vn 0.0886 -0.9823 -0.1648
vn 0.0836 -0.9823 -0.1678
vn -0.0679 -0.3848 0.9205
vn 0.0552 -0.9877 0.1463
vn 0.0555 -0.9904 0.1266
vn 0.0553 -0.9873 0.1491
vn 0.0541 -0.9842 0.1686
vn 0.0496 -0.3798 0.9237
vn 0.0800 -0.9835 -0.1624
vn 0.0749 -0.9179 -0.3897
vn 0.7439 -0.6137 0.2646
vn -0.1458 -0.9169 0.3716
vn -0.3024 -0.9376 0.1714
vn -0.3808 -0.8772 0.2923
vn 0.0739 -0.9259 0.3706
vn 0.0850 -0.9256 0.3689
vn 0.0740 -0.9259 0.3705
vn 0.0398 -0.9958 0.0825
vn 0.6185 -0.7854 0.0234
vn 0.8391 -0.5438 0.0164
vn 0.0412 -0.9320 -0.3601
vn 0.0409 -0.9328 -0.3581
vn 0.0479 -0.9456 -0.3218
vn -0.0509 -0.8428 -0.5359
vn -0.0185 -0.8846 -0.4660
vn -0.0135 -0.8832 -0.4687
vn 0.0113 -0.8892 -0.4574
vn -0.0431 -0.8781 -0.4765
vn 0.0085 -0.8510 -0.5250
vn 0.0335 -0.9168 -0.3980
vn 0.0627 -0.9261 0.3722
vn 0.1407 0.2281 -0.9634
vn -0.1407 -0.2281 0.9634
vn -0.1406 -0.2281 0.9634
vn -0.1406 -0.2280 0.9634
vn 0.8985 0.3787 0.2223
vn 0.4157 -0.8968 -0.1513
vn -0.8985 -0.3789 -0.2219
vn -0.4158 0.8968 0.1514
vn 0.3414 0.9020 0.2642
vn 0.9291 -0.3665 0.0503
vn -0.3415 -0.9020 -0.2642
vn -0.9293 0.3661 -0.0499
vn 0.1053 0.2657 0.9583
vn -0.1054 -0.2656 -0.9583
vn -0.1054 -0.2657 -0.9583
vn -0.1055 -0.2656 -0.9583
vn -0.1054 -0.2658 -0.9583
vn -0.1055 -0.2657 -0.9583
vn 0.9072 0.3709 -0.1984
vn 0.4093 -0.8903 0.1996
vn -0.9072 -0.3709 0.1983
vn -0.4093 0.8904 -0.1994
vn 0.3521 0.8926 -0.2816
vn 0.9301 -0.3673 0.0009
vn -0.3522 -0.8926 0.2815
vn -0.9301 0.3673 -0.0009
vn 0.1407 0.2278 -0.9635
vn 0.1407 0.2277 -0.9635
vn -0.1405 -0.2279 0.9635
vn -0.1406 -0.2278 0.9635
vn -0.1405 -0.2278 0.9635
vn -0.1403 -0.2279 0.9635
vn -0.1405 -0.2280 0.9635
vn -0.1405 -0.2276 0.9636
vn -0.1403 -0.2278 0.9636
vn -0.1405 -0.2277 0.9635
vn 0.8976 0.3800 0.2232
vn 0.4180 -0.8960 -0.1501
vn -0.8976 -0.3814 -0.2211
vn -0.4184 0.8957 0.1506
vn 0.3395 0.9028 0.2639
vn 0.9296 -0.3649 0.0519
vn -0.3401 -0.9026 -0.2638
vn -0.9306 0.3627 -0.0501
vn 0.1010 0.2999 0.9486
vn 0.1006 0.3006 0.9484
vn 0.1012 0.3002 0.9485
vn 0.1013 0.2998 0.9486
vn 0.1011 0.2997 0.9487
vn 0.1014 0.3002 0.9485
vn 0.1015 0.2998 0.9486
vn 0.1011 0.3009 0.9483
vn 0.1016 0.3007 0.9483
vn -0.0957 -0.3032 -0.9481
vn -0.1017 -0.3049 -0.9469
vn -0.0943 -0.3035 -0.9482
vn -0.1022 -0.3075 -0.9461
vn -0.0972 -0.3058 -0.9471
vn -0.1078 -0.3042 -0.9465
vn -0.1067 -0.3064 -0.9459
vn -0.1011 -0.3049 -0.9470
vn -0.1086 -0.3040 -0.9465
vn 0.9054 0.3672 -0.2129
vn 0.4024 -0.8867 0.2279
vn -0.9055 -0.3679 0.2113
vn -0.3987 0.8863 -0.2357
vn 0.3443 0.8842 -0.3158
vn 0.9273 -0.3741 0.0137
vn -0.3501 -0.8843 0.3089
vn -0.9273 0.3739 -0.0152
usemtl 455A64
s 1
f 1//1 2//1 3//1 4//1
f 5//2 6//2 7//2 8//2
f 9//3 1//3 4//3 10//3
f 2//4 5//4 8//4 3//4
f 3//5 8//5 11//5 12//5
f 10//6 4//6 13//6 14//6
f 15//7 16//7 17//7 18//7
f 19//8 11//8 20//8 21//8
f 11//9 15//9 18//9 20//9
f 20//10 18//10 22//10 23//10
f 8//11 7//11 15//11 11//11
f 4//12 3//12 12//12 13//12
f 2//13 1//13 24//13 25//13
f 6//14 5//14 26//14 27//14
f 5//15 2//15 25//15 26//15
f 28//16 29//16 30//16 31//16
f 29//17 32//17 33//17 30//17
f 32//18 34//18 35//18 33//18
f 36//19 37//19 38//19 39//19
f 40//20 41//20 42//20 43//20
f 41//21 36//21 39//21 42//21
f 30//22 33//22 36//22 41//22
f 31//23 30//23 41//23 40//23
f 33//24 35//24 37//24 36//24
f 44//25 25//26 45//26 46//27
f 47//28 44//29 32//30 29//30
f 48//31 47//31 29//31 28//31
f 42//32 39//32 49//32 50//32
f 39//33 38//33 51//33 49//33
f 43//34 42//34 50//34 52//34
f 50//35 49//35 53//35 54//35
f 49//36 51//36 55//36 53//36
f 52//37 50//37 54//37 56//37
f 54//38 53//38 57//38 58//38
f 53//39 55//39 59//39 57//39
f 56//40 54//40 58//40 60//40
f 60//41 58//41 59//41 61//41
f 57//42 59//42 58//42
f 62//43 63//43 64//43 65//43
f 25//44 24//44 66//44 45//44
f 34//45 32//45 67//45 68//45
f 69//46 70//46 65//46 64//46
f 71//47 72//47 73//47 69//47
f 72//48 74//48 75//48 73//48
f 45//49 66//49 74//49 72//49
f 46//50 45//51 72//51 71//52
f 68//53 67//53 63//53 62//53
f 67//54 46//50 71//52 63//54
f 63//55 71//55 69//55 64//55
f 73//56 75//56 70//56 69//56
f 27//57 26//57 47//31 48//31
f 26//58 25//58 44//29 47//28
f 32//59 44//25 46//27 67//59
f 14//60 13//60 76//60 77//60
f 12//61 11//61 19//61 78//61
f 13//62 12//62 79//62 76//62
f 16//63 19//63 21//63 17//63
f 19//64 16//64 80//64
f 77//65 76//65 81//65
f 78//66 19//66 80//66
f 76//67 79//67 81//67
f 23//68 22//68 82//68 83//68
f 17//69 21//69 83//69 82//69
f 21//70 20//70 23//70 83//70
f 18//71 17//71 82//71 22//71
f 78//72 80//72 81//72 79//72
f 12//73 78//73 79//73
f 84//74 85//74 86//74 87//74
f 88//75 89//75 7//75 6//75
f 9//76 10//76 85//76 84//76
f 87//77 86//77 89//77 88//77
f 86//78 90//78 91//78 89//78
f 10//79 14//79 92//79 85//79
f 15//80 93//80 94//80 16//80
f 95//81 96//81 97//81 91//81
f 91//82 97//82 93//82 15//82
f 97//83 98//83 99//83 93//83
f 89//84 91//84 15//84 7//84
f 85//85 92//85 90//85 86//85
f 87//86 100//86 101//86 84//86
f 6//87 27//87 102//87 88//87
f 88//88 102//88 100//88 87//88
f 28//89 31//89 103//89 104//89
f 104//90 103//90 105//90 106//90
f 106//91 105//91 107//91 108//91
f 109//92 110//92 111//92 112//92
f 40//93 43//93 113//93 114//93
f 114//94 113//94 110//94 109//94
f 103//95 114//95 109//95 105//95
f 31//96 40//96 114//96 103//96
f 105//97 109//97 112//97 107//97
f 115//98 116//99 117//100 100//100
f 118//101 104//102 106//102 115//103
f 48//104 28//104 104//104 118//104
f 113//105 119//105 120//105 110//105
f 110//106 120//106 121//106 111//106
f 43//107 52//107 119//107 113//107
f 119//108 122//108 123//108 120//108
f 120//109 123//109 124//109 121//109
f 52//110 56//110 122//110 119//110
f 122//111 125//111 126//111 123//111
f 123//112 126//112 127//112 124//112
f 56//113 60//113 125//113 122//113
f 60//114 61//114 127//114 125//114
f 126//115 125//115 127//115
f 128//116 129//116 130//116 131//116
f 100//117 117//117 132//117 101//117
f 108//118 133//118 134//118 106//118
f 135//119 130//119 129//119 136//119
f 137//120 135//120 138//120 139//120
f 139//121 138//121 140//121 141//121
f 117//122 139//122 141//122 132//122
f 116//123 137//124 139//125 117//125
f 133//126 128//126 131//126 134//126
f 134//127 131//127 137//124 116//123
f 131//128 130//128 135//128 137//128
f 138//129 135//129 136//129 140//129
f 27//104 48//104 118//104 102//104
f 102//130 118//101 115//103 100//130
f 106//131 134//131 116//99 115//98
f 14//132 77//132 142//132 92//132
f 90//133 143//133 95//133 91//133
f 92//134 142//134 144//134 90//134
f 16//135 94//135 96//135 95//135
f 95//136 80//136 16//136
f 77//137 81//137 142//137
f 143//138 80//138 95//138
f 142//139 81//139 144//139
f 98//140 145//140 146//140 99//140
f 94//141 146//141 145//141 96//141
f 96//142 145//142 98//142 97//142
f 93//143 99//143 146//143 94//143
f 143//144 144//144 81//144 80//144
f 90//145 144//145 143//145
usemtl 78909C
f 1//146 9//146 147//146 24//146
f 34//147 148//147 149//147 35//147
f 37//148 150//148 151//148 38//148
f 35//149 149//149 150//149 37//149
f 152//150 153//150 148//151 34//151
f 38//152 151//152 154//152 51//152
f 51//153 154//153 155//153 55//153
f 55//154 155//154 61//154 59//154
f 152//155 34//156 68//156 156//157
f 157//158 62//158 65//158 70//158
f 156//159 68//160 62//160 157//161
f 66//162 156//159 157//161 74//162
f 74//163 157//163 70//163 75//163
f 24//164 152//155 156//157 66//164
f 24//165 147//165 153//150 152//150
f 84//166 101//166 147//166 9//166
f 108//167 107//167 149//167 148//167
f 112//168 111//168 151//168 150//168
f 107//169 112//169 150//169 149//169
f 158//170 108//171 148//171 153//172
f 111//173 121//173 154//173 151//173
f 121//174 124//174 155//174 154//174
f 124//175 127//175 61//175 155//175
f 158//176 159//177 133//178 108//178
f 160//179 136//179 129//179 128//179
f 159//180 160//181 128//182 133//182
f 132//183 141//183 160//181 159//180
f 141//184 140//184 136//184 160//184
f 101//185 132//185 159//177 158//176
f 101//186 158//170 153//172 147//186
usemtl FFFFFF
f 161//187 162//187 163//187
f 164//187 162//187 165//187
f 166//187 162//187 167//187
f 168//187 162//187 169//187
f 163//187 162//187 168//187
f 165//187 162//187 161//187
f 167//187 162//187 164//187
f 169//187 162//187 166//187
f 170//188 171//188 172//188
f 173//189 174//188 172//188
f 175//190 176//189 172//188
f 177//188 178//188 172//188
f 171//188 177//188 172//188
f 174//188 170//188 172//188
f 176//189 173//189 172//188
f 178//188 175//190 172//188
f 161//191 163//191 171//191 170//191
f 164//192 165//192 174//192 173//192
f 166//193 167//193 176//193 175//193
f 168//194 169//194 178//194 177//194
f 163//195 168//195 177//195 171//195
f 165//196 161//196 170//196 174//196
f 167//197 164//197 173//197 176//197
f 169//198 166//198 175//198 178//198
f 179//199 180//199 181//199
f 182//199 183//199 181//199
f 184//199 185//199 181//199
f 186//199 187//199 181//199
f 180//199 186//199 181//199
f 183//199 179//199 181//199
f 185//199 182//199 181//199
f 187//199 184//199 181//199
f 188//200 189//201 190//201
f 191//202 189//201 192//200
f 193//203 189//201 194//204
f 195//201 189//201 196//201
f 190//201 189//201 195//201
f 192//200 189//201 188//200
f 194//204 189//201 191//202
f 196//201 189//201 193//203
f 179//205 188//205 190//205 180//205
f 182//206 191//206 192//206 183//206
f 184//207 193//207 194//207 185//207
f 186//208 195//208 196//208 187//208
f 180//209 190//209 195//209 186//209
f 183//210 192//210 188//210 179//210
f 185//211 194//211 191//211 182//211
f 187//212 196//212 193//212 184//212
usemtl 1A1A1A
f 197//213 198//213 199//213
f 200//213 198//213 201//213
f 202//214 198//213 203//213
f 204//213 198//213 205//213
f 199//213 198//213 204//213
f 201//213 198//213 197//213
f 203//213 198//213 200//213
f 205//213 198//213 202//214
f 206//215 207//216 208//217
f 209//218 210//219 208//217
f 211//220 212//221 208//217
f 213//216 214//222 208//217
f 207//216 213//216 208//217
f 210//219 206//215 208//217
f 212//221 209//218 208//217
f 214//222 211//220 208//217
f 197//223 199//223 207//223 206//223
f 200//224 201//224 210//224 209//224
f 202//225 203//225 212//225 211//225
f 204//226 205//226 214//226 213//226
f 199//227 204//227 213//227 207//227
f 201//228 197//228 206//228 210//228
f 203//229 200//229 209//229 212//229
f 205//230 202//230 211//230 214//230
f 215//231 216//232 217//233
f 218//234 219//235 217//233
f 220//236 221//237 217//233
f 222//238 223//239 217//233
f 216//232 222//238 217//233
f 219//235 215//231 217//233
f 221//237 218//234 217//233
f 223//239 220//236 217//233
f 224//240 225//241 226//242
f 227//243 225//241 228//244
f 229//245 225//241 230//246
f 231//247 225//241 232//248
f 226//242 225//241 231//247
f 228//244 225//241 224//240
f 230//246 225//241 227//243
f 232//248 225//241 229//245
f 215//249 224//249 226//249 216//249
f 218//250 227//250 228//250 219//250
f 220//251 229//251 230//251 221//251
f 222//252 231//252 232//252 223//252
f 216//253 226//253 231//253 222//253
f 219//254 228//254 224//254 215//254
f 221//255 230//255 227//255 218//255
f 223//256 232//256 229//256 220//256
