<svg xmlns="http://www.w3.org/2000/svg" viewBox="0 0 800 800"><defs><style>.cls-1{fill:#42a63f;}.cls-1,.cls-2{stroke:#fff;}.cls-1,.cls-2,.cls-3,.cls-4,.cls-5,.cls-6{stroke-miterlimit:10;}.cls-1,.cls-2,.cls-5{stroke-width:16px;}.cls-2{fill:#02590f;}.cls-3{fill:#fff;}.cls-3,.cls-4,.cls-6{stroke:#000;}.cls-4,.cls-5,.cls-7{fill:none;}.cls-4{stroke-width:19px;}.cls-5{stroke:#8c4318;}.cls-6{fill:#91d97e;}</style></defs><g id="Layer_1" data-name="Layer 1"><rect class="cls-1" x="400" width="400" height="400"/><rect class="cls-1" y="400" width="400" height="400"/><rect class="cls-2" width="400" height="400"/><rect class="cls-2" x="400" y="400" width="400" height="400"/><rect class="cls-3" x="361.5" y="361.5" width="77" height="77" transform="translate(400 -165.69) rotate(45)"/><rect class="cls-3" x="-38.49" y="361.51" width="77" height="77" transform="translate(282.85 117.15) rotate(45)"/><rect class="cls-3" x="761.5" y="361.5" width="77" height="77" transform="translate(517.16 -448.53) rotate(45)"/><rect class="cls-3" x="361.5" y="-38.5" width="77" height="77" transform="translate(117.15 -282.84) rotate(45)"/><rect class="cls-3" x="-38.5" y="-38.5" width="77" height="77" transform="translate(0 0) rotate(45)"/><rect class="cls-3" x="761.5" y="-38.5" width="77" height="77" transform="translate(234.31 -565.68) rotate(45)"/><rect class="cls-3" x="361.51" y="761.51" width="77" height="77" transform="translate(682.85 -48.53) rotate(45)"/><rect class="cls-3" x="-38.49" y="761.51" width="77" height="77" transform="translate(565.7 234.31) rotate(45)"/><rect class="cls-3" x="761.51" y="761.51" width="77" height="77" transform="translate(800.01 -331.37) rotate(45)"/><rect class="cls-4" width="800" height="800"/><line class="cls-4" x1="400" x2="400" y2="800"/><line class="cls-4" x1="800" y1="400" y2="400"/><rect class="cls-5" x="0.01" y="0.01" width="800" height="800"/><line class="cls-5" x1="400.01" y1="0.01" x2="400.01" y2="800.01"/><line class="cls-5" x1="800.01" y1="400.01" x2="0.01" y2="400.01"/><rect class="cls-6" x="377.79" y="377.79" width="44.42" height="44.42" transform="translate(400 -165.69) rotate(45)"/><rect class="cls-6" x="777.79" y="377.79" width="44.42" height="44.42" transform="translate(517.15 -448.53) rotate(45)"/><rect class="cls-6" x="-22.23" y="377.8" width="44.42" height="44.42" transform="translate(282.84 117.17) rotate(45)"/><rect class="cls-6" x="377.81" y="-22.22" width="44.42" height="44.42" transform="translate(117.16 -282.86) rotate(45)"/><rect class="cls-6" x="777.81" y="-22.22" width="44.42" height="44.42" transform="translate(234.31 -565.7) rotate(45)"/><rect class="cls-6" x="-22.2" y="-22.21" width="44.42" height="44.42" transform="translate(0 -0.01) rotate(45)"/><rect class="cls-6" x="377.79" y="777.79" width="44.42" height="44.42" transform="translate(682.84 -48.53) rotate(45)"/><rect class="cls-6" x="777.79" y="777.79" width="44.42" height="44.42" transform="translate(800 -331.37) rotate(45)"/><rect class="cls-6" x="-22.23" y="777.8" width="44.42" height="44.42" transform="translate(565.69 234.33) rotate(45)"/></g><g id="Layer_2" data-name="Layer 2"><rect class="cls-7" x="0.01" y="0.01" width="799.99" height="799.99"/></g></svg>