# Blender v2.78 (sub 0) OBJ File: '18.blend'
# www.blender.org
mtllib Manatee_01.mtl
o Manatee_Circle.002
v 6.639588 6.194749 -1.587242
v 6.508866 6.154892 -1.616753
v 6.448390 6.034790 -1.655038
v 6.493586 5.904797 -1.679670
v 6.617978 5.841060 -1.676220
v 6.748700 5.880917 -1.646709
v 6.809176 6.001019 -1.608424
v 6.763981 6.131012 -1.583792
v 6.628783 6.017904 -1.631731
v 6.774514 5.945723 -1.380205
v 6.714038 5.825621 -1.418490
v 6.583316 5.785764 -1.448001
v 6.458924 5.849501 -1.451451
v 6.413728 5.979494 -1.426818
v 6.604927 6.139453 -1.359023
v 6.474205 6.099596 -1.388533
v 6.729319 6.075716 -1.355573
v 6.594121 5.962608 -1.403512
v 6.559853 6.148074 -1.635996
v 6.518555 6.135482 -1.645320
v 6.499450 6.097540 -1.657415
v 6.513728 6.056472 -1.665196
v 6.553026 6.036336 -1.664106
v 6.594323 6.048928 -1.654783
v 6.613429 6.086871 -1.642688
v 6.599151 6.127938 -1.634907
v 6.556439 6.092205 -1.650051
v 6.602479 6.069402 -1.570589
v 6.583373 6.031459 -1.582684
v 6.542075 6.018867 -1.592008
v 6.502777 6.039003 -1.593097
v 6.488499 6.080070 -1.585315
v 6.548903 6.130605 -1.563897
v 6.507605 6.118013 -1.573221
v 6.588201 6.110469 -1.562808
v 6.545489 6.074736 -1.577953
v 6.639588 6.194749 1.587243
v 6.508866 6.154892 1.616755
v 6.448390 6.034790 1.655040
v 6.493586 5.904797 1.679672
v 6.617978 5.841060 1.676222
v 6.748700 5.880917 1.646711
v 6.809176 6.001019 1.608426
v 6.763981 6.131012 1.583794
v 6.628783 6.017904 1.631733
v 6.774514 5.945723 1.380207
v 6.714038 5.825621 1.418492
v 6.583316 5.785764 1.448003
v 6.458924 5.849501 1.451453
v 6.413728 5.979494 1.426820
v 6.604927 6.139453 1.359025
v 6.474205 6.099596 1.388535
v 6.729319 6.075716 1.355575
v 6.594121 5.962608 1.403514
v 6.559853 6.148074 1.635998
v 6.518555 6.135482 1.645321
v 6.499450 6.097540 1.657416
v 6.513728 6.056472 1.665198
v 6.553026 6.036336 1.664108
v 6.594323 6.048928 1.654785
v 6.613429 6.086871 1.642690
v 6.599151 6.127938 1.634908
v 6.556439 6.092205 1.650053
v 6.602479 6.069402 1.570591
v 6.583373 6.031459 1.582686
v 6.542075 6.018867 1.592009
v 6.502777 6.039003 1.593099
v 6.488499 6.080070 1.585317
v 6.548903 6.130605 1.563899
v 6.507605 6.118013 1.573223
v 6.588201 6.110469 1.562810
v 6.545489 6.074736 1.577954
v 5.498896 5.254280 -1.899165
v 6.141273 7.733723 -1.342912
v 5.117720 4.412121 -1.342912
v 6.612101 4.458122 -1.886962
v 7.936619 6.631623 -1.295268
v 6.316162 3.776042 -1.295268
v 8.629679 4.478189 -0.588384
v 8.776380 4.721959 -0.763033
v 9.023977 4.327934 -0.336082
v 9.084883 4.519261 -0.805612
v 8.938181 4.275493 -0.630963
v 9.175395 4.574586 -0.336082
v 3.296902 5.939044 -4.170738
v 3.296902 8.728952 -2.949157
v 3.296902 2.989886 -2.949157
v -2.937226 5.542625 -3.289664
v -3.387066 7.970878 -2.326144
v -2.461710 2.975767 -2.326143
v -8.304148 5.121078 -1.459916
v -8.585087 5.630562 -1.032316
v -8.096544 4.820430 -1.032316
v -6.857144 5.504678 -2.181714
v -6.440651 4.395884 -1.542704
v -7.251149 6.553600 -1.542704
v 0.063655 8.726626 -3.046011
v 0.063655 2.799081 -3.046011
v 0.063655 5.845094 -4.307711
v -8.923360 4.776056 -1.459916
v -9.440534 5.004468 -1.032316
v -8.775234 4.633756 -1.032316
v -10.089413 2.446995 -3.928941
v -10.549121 2.697707 -2.778181
v -9.951712 2.390517 -2.778180
v -10.378954 0.478124 -3.928941
v -10.848687 0.663441 -2.778181
v -10.230662 0.490773 -2.778180
v 2.864132 4.245777 -3.916691
v 2.864132 2.653090 -3.256979
v 0.807225 2.550047 -3.309285
v 0.807225 4.195040 -3.990663
v 2.765139 0.791945 -4.237537
v 2.765139 0.808605 -3.751376
v 0.708232 0.794012 -3.803681
v 0.708232 0.784760 -4.311509
v 0.559211 2.252469 -4.226838
v 0.559211 1.646883 -3.545460
v 2.966409 1.684818 -3.493154
v 2.966409 2.271147 -4.152866
v 1.680279 2.894484 -2.997584
v 1.680279 8.727790 -2.997584
v 1.680279 5.892069 -4.239225
v 1.835679 2.601569 -3.283132
v 1.835678 4.220408 -3.953677
v 1.736686 0.204855 -3.777529
v 1.736686 0.191898 -4.274523
v 1.762810 2.261809 -4.189852
v 1.762810 1.665850 -3.519307
v 9.136364 4.686234 -1.295268
v 7.415418 3.388561 -1.886961
v 6.949917 2.925886 -1.295268
v 8.731668 4.013760 -0.813473
v 7.887568 3.251352 -0.954519
v 7.640804 2.923072 -0.640155
v 8.715474 4.530631 -0.293503
v 8.866892 4.777283 -0.293503
v 7.957283 3.085191 -0.954519
v 5.498896 5.254280 1.899167
v 6.141273 7.733723 1.342914
v 6.249806 8.085931 0.000001
v 4.899853 3.705106 0.000001
v 5.117720 4.412121 1.342914
v 6.612101 4.458122 1.886964
v 7.936619 6.631623 1.295270
v 8.148697 6.916904 0.000001
v 5.890440 3.203374 0.000001
v 6.316162 3.776042 1.295270
v 8.629679 4.478189 0.588386
v 8.776380 4.721959 0.763035
v 9.023977 4.327934 0.336084
v 9.084883 4.519261 0.805614
v 8.938181 4.275493 0.630965
v 9.175395 4.574586 0.336084
v 3.296902 5.939044 4.170740
v 3.296902 8.728952 2.949159
v 3.296902 9.337496 0.000001
v 3.296902 1.768304 0.000001
v 3.296902 2.989886 2.949159
v -2.937226 5.542625 3.289666
v -3.387066 7.970878 2.326145
v -3.485187 8.500535 0.000001
v -2.264744 1.912539 0.000001
v -2.461710 2.975767 2.326145
v -8.304148 5.121078 1.459918
v -8.585087 5.630562 1.032318
v -8.627925 5.692600 0.000001
v -8.010550 4.695897 0.000001
v -8.096544 4.820430 1.032318
v -6.857144 5.504678 2.181715
v -6.440651 4.395884 1.542706
v -6.268133 3.936605 0.000001
v -7.337090 6.782394 0.000001
v -7.251149 6.553600 1.542706
v 0.063655 9.355156 0.000001
v 0.063655 8.726626 3.046013
v 0.063655 2.799081 3.046013
v 0.063656 1.537381 0.000001
v 0.063655 5.845094 4.307713
v -8.923360 4.776056 1.459918
v -9.440534 5.004468 1.032318
v -9.471099 5.033831 0.000001
v -8.713880 4.574813 0.000001
v -8.775234 4.633756 1.032318
v -10.089413 2.446995 3.928943
v -10.549121 2.697707 2.778183
v -10.577535 2.709360 0.000001
v -9.894676 2.367124 0.000001
v -9.951712 2.390517 2.778182
v -10.378954 0.478124 3.928943
v -10.848687 0.663441 2.778183
v -10.683379 1.990800 0.000001
v -9.990985 1.710795 0.000001
v -10.230662 0.490773 2.778182
v 2.864132 4.245777 3.916693
v 2.864132 2.653090 3.256981
v 0.807225 2.550047 3.309287
v 0.807225 4.195040 3.990665
v 2.765139 0.791945 4.237539
v 2.765139 0.808605 3.751378
v 0.708232 0.794012 3.803683
v 0.708232 0.784760 4.311511
v 0.559211 2.252469 4.226840
v 0.559211 1.646883 3.545462
v 2.966409 1.684818 3.493156
v 2.966409 2.271147 4.152868
v 1.680279 9.346327 0.000001
v 1.680279 2.894484 2.997586
v 1.680279 8.727790 2.997586
v 1.680279 1.652843 0.000001
v 1.680279 5.892069 4.239227
v 1.835679 2.601569 3.283134
v 1.835678 4.220408 3.953679
v 1.736686 0.204855 3.777530
v 1.736686 0.191898 4.274525
v 1.762810 2.261809 4.189854
v 1.762810 1.665850 3.519309
v 9.136364 4.686234 1.295270
v 7.415418 3.388561 1.886963
v 9.386057 4.838853 0.000001
v 6.949917 2.925886 1.295270
v 6.448692 2.619520 0.000001
v 8.731668 4.013760 0.813475
v 7.887568 3.251352 0.954521
v 8.968348 4.158427 0.000001
v 7.640804 2.923072 0.640157
v 7.454551 2.809228 0.000001
v 8.063457 3.139497 0.000001
v 8.715474 4.530631 0.293505
v 8.866892 4.777283 0.293505
v 7.957283 3.085191 0.954521
v 8.133172 2.973337 0.000001
vn -0.2842 -0.4930 -0.8223
vn 0.5081 0.8211 -0.2602
vn -0.3971 -0.7840 -0.4772
vn 0.1386 0.1816 -0.9736
vn 0.2137 0.1420 -0.9665
vn -0.6900 -0.5736 -0.4415
vn 0.8459 -0.5193 -0.1219
vn 0.8157 -0.5683 -0.1080
vn 0.8348 -0.5420 -0.0971
vn -0.5190 -0.8315 0.1980
vn 0.8317 0.5038 -0.2334
vn -0.5399 -0.4042 -0.7384
vn 0.6797 -0.3663 -0.6355
vn 0.4033 0.8907 -0.2096
vn 0.6360 0.1760 -0.7514
vn -0.2396 0.9482 -0.2088
vn -0.2966 0.3476 -0.8895
vn -0.2704 -0.3745 -0.8869
vn -0.2862 -0.6556 -0.6988
vn -0.6187 0.7767 -0.1187
vn -0.5069 0.3265 -0.7978
vn -0.2820 0.3443 -0.8955
vn -0.3862 0.9016 -0.1951
vn -0.2812 -0.4401 -0.8528
vn 0.0437 -0.1617 -0.9859
vn 0.0271 0.4009 -0.9157
vn 0.0053 0.9794 -0.2021
vn -0.3463 0.5258 -0.7769
vn 0.3197 -0.7805 -0.5372
vn -0.6023 0.7963 -0.0567
vn -0.4855 0.7064 -0.5150
vn 0.9349 -0.2893 -0.2057
vn -0.8992 0.4371 -0.0186
vn -0.9098 0.1339 -0.3928
vn 0.9816 -0.1443 -0.1247
vn -0.9893 0.1457 -0.0107
vn -0.2970 -0.8596 0.4158
vn -0.2688 -0.9621 0.0452
vn -0.9912 -0.1185 -0.0594
vn 0.6906 -0.2768 -0.6682
vn -0.4144 -0.3483 -0.8408
vn -0.4986 -0.8666 0.0192
vn 0.0204 0.0463 -0.9987
vn 0.9845 -0.1569 -0.0780
vn 0.9944 0.0546 0.0902
vn 0.0310 0.1194 -0.9924
vn -0.9668 0.1323 0.2184
vn 0.0311 0.1176 -0.9926
vn 0.0460 0.0494 -0.9977
vn 0.5043 -0.8631 0.0260
vn 0.0438 -0.1668 -0.9850
vn 0.1662 -0.9742 -0.1525
vn 0.6607 -0.5863 -0.4687
vn 0.4241 -0.8206 -0.3830
vn 0.8227 -0.5505 -0.1415
vn 0.8100 -0.5709 -0.1342
vn 0.4767 -0.8789 -0.0176
vn 0.7661 -0.6067 -0.2123
vn 0.6762 -0.7069 -0.2074
vn 0.8302 -0.5455 -0.1146
vn 0.4972 0.8177 -0.2901
vn 0.3692 0.3841 0.8463
vn -0.0977 0.0600 -0.9934
vn -0.9151 -0.3839 0.1236
vn -0.8532 -0.3580 0.3794
vn -0.2842 -0.4930 0.8223
vn 0.5081 0.8211 0.2602
vn -0.3971 -0.7840 0.4772
vn 0.1386 0.1816 0.9736
vn 0.2137 0.1420 0.9665
vn -0.6900 -0.5736 0.4415
vn 0.8459 -0.5193 0.1219
vn 0.8157 -0.5683 0.1080
vn 0.8348 -0.5420 0.0971
vn -0.5190 -0.8315 -0.1980
vn 0.8317 0.5038 0.2334
vn -0.5399 -0.4042 0.7384
vn 0.6797 -0.3663 0.6355
vn 0.4033 0.8907 0.2096
vn 0.6360 0.1760 0.7514
vn -0.2396 0.9482 0.2088
vn -0.2966 0.3476 0.8895
vn -0.2704 -0.3745 0.8869
vn -0.2862 -0.6556 0.6988
vn -0.6187 0.7767 0.1187
vn -0.5069 0.3265 0.7978
vn -0.2820 0.3443 0.8955
vn -0.3862 0.9016 0.1951
vn -0.2812 -0.4401 0.8528
vn 0.0437 -0.1617 0.9859
vn 0.0271 0.4009 0.9157
vn 0.0053 0.9794 0.2021
vn -0.3463 0.5258 0.7769
vn 0.3197 -0.7805 0.5372
vn -0.6023 0.7963 0.0567
vn -0.4855 0.7064 0.5150
vn 0.9349 -0.2893 0.2057
vn -0.8992 0.4371 0.0186
vn -0.9098 0.1339 0.3928
vn 0.9816 -0.1443 0.1247
vn -0.9893 0.1457 0.0107
vn -0.2970 -0.8596 -0.4158
vn -0.2688 -0.9621 -0.0452
vn -0.9912 -0.1185 0.0594
vn 0.6906 -0.2768 0.6682
vn -0.4144 -0.3483 0.8408
vn -0.4986 -0.8666 -0.0192
vn 0.0204 0.0463 0.9987
vn 0.9845 -0.1569 0.0780
vn 0.9944 0.0546 -0.0902
vn 0.0310 0.1194 0.9924
vn -0.9668 0.1323 -0.2184
vn 0.0311 0.1176 0.9926
vn 0.0460 0.0494 0.9977
vn 0.5043 -0.8631 -0.0260
vn 0.0438 -0.1668 0.9850
vn 0.1662 -0.9742 0.1525
vn 0.6607 -0.5863 0.4687
vn 0.4241 -0.8206 0.3830
vn 0.8227 -0.5505 0.1415
vn 0.8100 -0.5709 0.1342
vn 0.4767 -0.8789 0.0176
vn 0.7661 -0.6067 0.2123
vn 0.6762 -0.7069 0.2074
vn 0.8302 -0.5455 0.1146
vn 0.4972 0.8177 0.2901
vn 0.3692 0.3841 -0.8463
vn -0.0977 0.0600 0.9934
vn -0.9151 -0.3839 -0.1236
vn -0.8532 -0.3580 -0.3793
vn 0.7352 -0.6315 -0.2464
vn -0.1606 -0.9080 -0.3871
vn -0.3472 -0.9215 -0.1741
vn -0.4025 -0.8643 -0.3017
vn 0.0658 -0.9219 -0.3819
vn 0.2162 -0.9710 -0.1017
vn 0.8891 -0.4562 -0.0375
vn 0.9892 -0.1452 -0.0215
vn 0.0184 -0.6962 0.7176
vn -0.0793 -0.2212 0.9720
vn -0.0149 -0.2463 0.9691
vn -0.0151 -0.2410 0.9704
vn 0.0383 -0.2192 0.9749
vn 0.0179 -0.6899 0.7237
vn 0.7352 -0.6315 0.2464
vn -0.1606 -0.9080 0.3871
vn -0.3472 -0.9215 0.1741
vn -0.4025 -0.8643 0.3017
vn 0.0658 -0.9219 0.3819
vn 0.2162 -0.9710 0.1017
vn 0.8891 -0.4562 0.0375
vn 0.9892 -0.1452 0.0215
vn 0.0184 -0.6962 -0.7176
vn -0.0793 -0.2212 -0.9720
vn -0.0149 -0.2463 -0.9691
vn -0.0151 -0.2410 -0.9704
vn 0.0383 -0.2192 -0.9749
vn 0.0179 -0.6899 -0.7237
vn 0.1460 0.2330 -0.9615
vn 0.1460 0.2329 -0.9615
vn -0.1460 -0.2330 0.9615
vn -0.1460 -0.2329 0.9615
vn 0.9350 0.2851 0.2111
vn 0.3233 -0.9298 -0.1762
vn -0.9350 -0.2851 -0.2111
vn -0.3233 0.9298 0.1762
vn 0.4325 0.8590 0.2738
vn 0.8897 -0.4559 0.0247
vn -0.4326 -0.8590 -0.2738
vn -0.8897 0.4559 -0.0247
vn 0.1460 0.2330 0.9615
vn 0.1460 0.2329 0.9615
vn -0.1460 -0.2330 -0.9615
vn -0.1460 -0.2329 -0.9615
vn 0.9350 0.2851 -0.2111
vn 0.3233 -0.9298 0.1762
vn -0.9350 -0.2851 0.2111
vn -0.3233 0.9298 -0.1762
vn 0.4325 0.8590 -0.2738
vn 0.8897 -0.4559 -0.0247
vn -0.4326 -0.8590 0.2738
vn -0.8897 0.4559 0.0247
vn 0.4326 0.8590 0.2738
vn 0.4326 0.8590 -0.2738
usemtl 455A64
s off
f 75//1 73//1 76//1 78//1
f 74//2 141//2 146//2 77//2
f 142//3 75//3 78//3 147//3
f 73//4 74//4 77//4 76//4
f 76//5 77//5 130//5 131//5
f 147//6 78//6 132//6 222//6
f 220//7 225//7 81//7 84//7
f 133//8 130//8 82//8 83//8
f 130//9 220//9 84//9 82//9
f 82//10 84//10 137//10 80//10
f 77//11 146//11 220//11 130//11
f 78//12 76//12 131//12 132//12
f 73//13 75//13 87//13 85//13
f 141//14 74//14 86//14 157//14
f 74//15 73//15 85//15 86//15
f 175//16 97//16 89//16 162//16
f 97//17 99//17 88//17 89//17
f 99//18 98//18 90//18 88//18
f 94//19 95//19 93//19 91//19
f 173//20 96//20 92//20 167//20
f 96//21 94//21 91//21 92//21
f 89//22 88//22 94//22 96//22
f 162//23 89//23 96//23 173//23
f 88//24 90//24 95//24 94//24
f 123//25 85//25 109//25 125//25
f 122//26 123//26 99//26 97//26
f 207//27 122//27 97//27 175//27
f 92//28 91//28 100//28 101//28
f 91//29 93//29 102//29 100//29
f 167//30 92//30 101//30 182//30
f 101//31 100//31 103//31 104//31
f 100//32 102//32 105//32 103//32
f 182//33 101//33 104//33 187//33
f 104//34 103//34 106//34 107//34
f 103//35 105//35 108//35 106//35
f 187//36 104//36 107//36 192//36
f 192//37 107//37 108//37 193//37
f 106//38 108//38 107//38
f 118//39 117//39 116//39 115//39
f 85//40 87//40 110//40 109//40
f 98//41 99//41 112//41 111//41
f 127//42 126//42 115//42 116//42
f 128//43 120//43 113//43 127//43
f 120//44 119//44 114//44 113//44
f 109//45 110//45 119//45 120//45
f 125//46 109//46 120//46 128//46
f 111//47 112//47 117//47 118//47
f 112//48 125//48 128//48 117//48
f 117//49 128//49 127//49 116//49
f 113//50 114//50 126//50 127//50
f 157//27 86//27 122//27 207//27
f 86//26 85//26 123//26 122//26
f 99//51 123//51 125//51 112//51
f 222//52 132//52 135//52 227//52
f 131//53 130//53 133//53 138//53
f 132//54 131//54 134//54 135//54
f 225//55 133//55 83//55 81//55
f 133//56 225//56 232//56
f 227//57 135//57 228//57
f 138//58 133//58 232//58
f 135//59 134//59 228//59
f 80//60 137//60 136//60 79//60
f 81//61 83//61 79//61 136//61
f 83//62 82//62 80//62 79//62
f 84//63 81//63 136//63 137//63
f 138//64 232//64 228//64 134//64
f 131//65 138//65 134//65
f 143//66 148//66 144//66 139//66
f 140//67 145//67 146//67 141//67
f 142//68 147//68 148//68 143//68
f 139//69 144//69 145//69 140//69
f 144//70 219//70 218//70 145//70
f 147//71 222//71 221//71 148//71
f 220//72 154//72 151//72 225//72
f 223//73 153//73 152//73 218//73
f 218//74 152//74 154//74 220//74
f 152//75 150//75 230//75 154//75
f 145//76 218//76 220//76 146//76
f 148//77 221//77 219//77 144//77
f 139//78 155//78 159//78 143//78
f 141//79 157//79 156//79 140//79
f 140//80 156//80 155//80 139//80
f 175//81 162//81 161//81 176//81
f 176//82 161//82 160//82 179//82
f 179//83 160//83 164//83 177//83
f 170//84 165//84 169//84 171//84
f 173//85 167//85 166//85 174//85
f 174//86 166//86 165//86 170//86
f 161//87 174//87 170//87 160//87
f 162//88 173//88 174//88 161//88
f 160//89 170//89 171//89 164//89
f 211//90 213//90 195//90 155//90
f 209//91 176//91 179//91 211//91
f 207//92 175//92 176//92 209//92
f 166//93 181//93 180//93 165//93
f 165//94 180//94 184//94 169//94
f 167//95 182//95 181//95 166//95
f 181//96 186//96 185//96 180//96
f 180//97 185//97 189//97 184//97
f 182//98 187//98 186//98 181//98
f 186//99 191//99 190//99 185//99
f 185//100 190//100 194//100 189//100
f 187//101 192//101 191//101 186//101
f 192//102 193//102 194//102 191//102
f 190//103 191//103 194//103
f 204//104 201//104 202//104 203//104
f 155//105 195//105 196//105 159//105
f 177//106 197//106 198//106 179//106
f 215//107 202//107 201//107 214//107
f 216//108 215//108 199//108 206//108
f 206//109 199//109 200//109 205//109
f 195//110 206//110 205//110 196//110
f 213//111 216//111 206//111 195//111
f 197//112 204//112 203//112 198//112
f 198//113 203//113 216//113 213//113
f 203//114 202//114 215//114 216//114
f 199//115 215//115 214//115 200//115
f 157//92 207//92 209//92 156//92
f 156//91 209//91 211//91 155//91
f 179//116 198//116 213//116 211//116
f 222//117 227//117 226//117 221//117
f 219//118 231//118 223//118 218//118
f 221//119 226//119 224//119 219//119
f 225//120 151//120 153//120 223//120
f 223//121 232//121 225//121
f 227//122 228//122 226//122
f 231//123 232//123 223//123
f 226//124 228//124 224//124
f 150//125 149//125 229//125 230//125
f 151//126 229//126 149//126 153//126
f 153//127 149//127 150//127 152//127
f 154//128 230//128 229//128 151//128
f 231//129 224//129 228//129 232//129
f 219//130 224//130 231//130
usemtl 78909C
f 75//131 142//131 158//131 87//131
f 98//132 178//132 163//132 90//132
f 95//133 172//133 168//133 93//133
f 90//134 163//134 172//134 95//134
f 121//135 210//135 178//135 98//135
f 93//136 168//136 183//136 102//136
f 102//137 183//137 188//137 105//137
f 105//138 188//138 193//138 108//138
f 121//139 98//139 111//139 124//139
f 129//140 118//140 115//140 126//140
f 124//141 111//141 118//141 129//141
f 110//142 124//142 129//142 119//142
f 119//143 129//143 126//143 114//143
f 87//144 121//144 124//144 110//144
f 87//135 158//135 210//135 121//135
f 143//145 159//145 158//145 142//145
f 177//146 164//146 163//146 178//146
f 171//147 169//147 168//147 172//147
f 164//148 171//148 172//148 163//148
f 208//149 177//149 178//149 210//149
f 169//150 184//150 183//150 168//150
f 184//151 189//151 188//151 183//151
f 189//152 194//152 193//152 188//152
f 208//153 212//153 197//153 177//153
f 217//154 214//154 201//154 204//154
f 212//155 217//155 204//155 197//155
f 196//156 205//156 217//156 212//156
f 205//157 200//157 214//157 217//157
f 159//158 196//158 212//158 208//158
f 159//149 208//149 210//149 158//149
usemtl FFFFFF
f 25//159 27//159 26//159
f 23//159 27//159 24//159
f 21//159 27//159 22//159
f 19//159 27//159 20//159
f 26//159 27//159 19//159
f 24//159 27//159 25//159
f 22//160 27//160 23//160
f 20//160 27//160 21//160
f 28//161 35//161 36//161
f 30//161 29//161 36//161
f 32//161 31//161 36//161
f 33//162 34//162 36//162
f 35//161 33//161 36//161
f 29//162 28//162 36//162
f 31//161 30//161 36//161
f 34//161 32//161 36//161
f 25//163 26//163 35//163 28//163
f 23//164 24//164 29//164 30//164
f 21//165 22//165 31//165 32//165
f 19//166 20//166 34//166 33//166
f 26//167 19//167 33//167 35//167
f 24//168 25//168 28//168 29//168
f 22//169 23//169 30//169 31//169
f 20//170 21//170 32//170 34//170
f 61//171 62//171 63//171
f 59//171 60//171 63//171
f 57//171 58//171 63//171
f 55//171 56//171 63//171
f 62//171 55//171 63//171
f 60//171 61//171 63//171
f 58//172 59//172 63//172
f 56//172 57//172 63//172
f 64//173 72//173 71//173
f 66//173 72//173 65//173
f 68//173 72//173 67//173
f 69//173 72//173 70//173
f 71//173 72//173 69//173
f 65//174 72//174 64//174
f 67//173 72//173 66//173
f 70//173 72//173 68//173
f 61//175 64//175 71//175 62//175
f 59//176 66//176 65//176 60//176
f 57//177 68//177 67//177 58//177
f 55//178 69//178 70//178 56//178
f 62//179 71//179 69//179 55//179
f 60//180 65//180 64//180 61//180
f 58//181 67//181 66//181 59//181
f 56//182 70//182 68//182 57//182
usemtl 1A1A1A
f 7//159 9//159 8//159
f 5//159 9//159 6//159
f 3//159 9//159 4//159
f 1//159 9//159 2//159
f 8//159 9//159 1//159
f 6//159 9//159 7//159
f 4//159 9//159 5//159
f 2//159 9//159 3//159
f 10//161 17//161 18//161
f 12//161 11//161 18//161
f 14//161 13//161 18//161
f 15//161 16//161 18//161
f 17//161 15//161 18//161
f 11//161 10//161 18//161
f 13//161 12//161 18//161
f 16//161 14//161 18//161
f 7//163 8//163 17//163 10//163
f 5//164 6//164 11//164 12//164
f 3//165 4//165 13//165 14//165
f 1//166 2//166 16//166 15//166
f 8//183 1//183 15//183 17//183
f 6//168 7//168 10//168 11//168
f 4//169 5//169 12//169 13//169
f 2//170 3//170 14//170 16//170
f 43//171 44//171 45//171
f 41//171 42//171 45//171
f 39//171 40//171 45//171
f 37//171 38//171 45//171
f 44//171 37//171 45//171
f 42//171 43//171 45//171
f 40//171 41//171 45//171
f 38//171 39//171 45//171
f 46//173 54//173 53//173
f 48//173 54//173 47//173
f 50//173 54//173 49//173
f 51//173 54//173 52//173
f 53//173 54//173 51//173
f 47//173 54//173 46//173
f 49//173 54//173 48//173
f 52//173 54//173 50//173
f 43//175 46//175 53//175 44//175
f 41//176 48//176 47//176 42//176
f 39//177 50//177 49//177 40//177
f 37//178 51//178 52//178 38//178
f 44//184 53//184 51//184 37//184
f 42//180 47//180 46//180 43//180
f 40//181 49//181 48//181 41//181
f 38//182 52//182 50//182 39//182
